<?xml version="1.0" standalone="no"?>
<!DOCTYPE svg PUBLIC "-//W3C//DTD SVG 20010904//EN"
 "http://www.w3.org/TR/2001/REC-SVG-20010904/DTD/svg10.dtd">
<svg version="1.0" xmlns="http://www.w3.org/2000/svg"
 width="1408.000000pt" height="1408.000000pt" viewBox="0 0 1408.000000 1408.000000"
 preserveAspectRatio="xMidYMid meet">
<metadata>
Created by potrace 1.14, written by Peter Selinger 2001-2017
</metadata>
<g transform="translate(0.000000,1408.000000) scale(0.100000,-0.100000)"
fill="#000000" stroke="none">
<path d="M5629 12392 l-1406 -1407 1 -1386 1 -1387 583 -583 c320 -320 582
-585 582 -589 0 -4 -262 -269 -582 -590 l-583 -582 0 -1388 -1 -1387 1408
-1408 1408 -1408 1408 1409 1409 1409 -1 1387 -1 1386 -582 583 c-321 320
-583 585 -583 589 0 3 262 269 583 590 l583 583 0 1387 -1 1388 -1406 1406
c-773 773 -1408 1406 -1410 1406 -2 -1 -637 -634 -1410 -1408z m2567 -471
l1149 -1149 -1 -1174 0 -1173 -509 -507 c-279 -280 -511 -508 -515 -508 -4 0
-236 229 -516 509 l-509 509 0 1224 0 1223 -25 2 c-29 3 -104 4 -116 2 -5 -1
-12 -1 -16 1 -17 4 -99 3 -103 -2 -3 -3 -25 -2 -49 2 -23 3 -51 3 -62 0 -10
-4 -30 -4 -44 -1 -14 4 -41 4 -61 1 l-35 -5 0 -1332 1 -1331 1280 -1280 1280
-1280 0 -1172 -1 -1172 -1148 -1149 c-632 -632 -1152 -1149 -1156 -1149 -4 0
-524 516 -1155 1148 l-1149 1147 -1 1155 c0 635 2 1166 6 1180 6 23 1003 1030
1019 1030 4 0 236 -229 516 -509 l508 -508 0 -1224 1 -1224 25 -2 c29 -3 104
-4 116 -2 5 1 12 1 17 -1 16 -4 98 -3 102 2 3 3 25 2 49 -2 23 -3 51 -3 62 0
10 4 30 4 44 1 14 -4 41 -4 61 -1 l35 5 0 1332 -1 1331 -1280 1280 -1280 1280
1 1174 1 1173 1144 1146 c629 630 1149 1147 1155 1148 6 0 528 -516 1160
-1148z"/>
</g>
</svg>
